<svg height="512pt" viewBox="0 0 512 512.001" width="512pt" xmlns="http://www.w3.org/2000/svg"><path d="m512 236c0 45.449219-14.039062 89.578125-40.601562 127.613281-6.324219 9.058594-18.792969 11.273438-27.847657 4.949219-9.058593-6.324219-11.273437-18.792969-4.949219-27.847656 21.851563-31.289063 33.398438-67.5 33.398438-104.714844 0-108.074219-96.898438-196-216-196s-216 87.925781-216 196c0 43.78125 15.578125 85.199219 45.046875 119.773438 4.832031 5.671874 6.113281 13.5625 3.320313 20.46875l-31.367188 77.589843 91.347656-40.265625c5.0625-2.230468 10.824219-2.265625 15.914063-.09375 28.820312 12.292969 59.683593 18.527344 91.738281 18.527344 36.890625 0 73.300781-8.585938 105.285156-24.832031 9.851563-5 21.886719-1.070313 26.890625 8.773437 5 9.851563 1.074219 21.886719-8.773437 26.890625-37.574219 19.082031-80.246094 29.167969-123.402344 29.167969-34.480469 0-67.835938-6.191406-99.277344-18.414062l-128.652344 56.714843c-2.597656 1.144531-5.34375 1.699219-8.066406 1.699219-5.09375 0-10.113281-1.945312-13.921875-5.640625-5.847656-5.664063-7.671875-14.308594-4.621093-21.855469l45.410156-112.332031c-30.707032-39.917969-46.871094-86.746094-46.871094-136.171875 0-63.375 26.855469-122.855469 75.621094-167.488281 48.269531-44.179688 112.332031-68.511719 180.378906-68.511719s132.109375 24.332031 180.378906 68.511719c48.765625 44.632812 75.621094 104.113281 75.621094 167.488281zm-305 83.1875v-24.734375c0-14.011719-8.707031-28.28125-17.921875-43.386719-11.125-18.226562-23.714844-38.855468-24.070313-64.171875-.003906-.183593-.007812-.371093-.007812-.558593v-.539063c0-.164063.003906-.328125.007812-.496094.28125-24.265625 10.496094-45.441406 28.839844-59.722656 16.453125-12.808594 38.25-19.578125 63.035156-19.578125 53.527344 0 89.613282 31.835938 90.113282 79.332031.003906.15625.003906.308594.003906.464844v.539063c0 .152343 0 .308593-.003906.460937-.292969 27.832031-12.773438 48.761719-23.796875 67.246094-8.691407 14.574219-16.199219 27.160156-16.199219 40.410156v24.734375c0 18.398438-12.878906 33.835938-30.101562 37.808594-1 10.109375-9.527344 18.003906-19.898438 18.003906-10.355469 0-18.875-7.871094-19.898438-17.960938-17.207031-3.902343-30.101562-19.386718-30.101562-37.851562zm40-21.1875v20h20v-20zm-23.777344-67.769531c5.269532 8.636719 10.871094 17.820312 15.3125 27.769531h37c3.949219-8.746094 8.761719-16.820312 13.308594-24.445312 9.695312-16.253907 18.070312-30.300782 18.15625-47.496094-.175781-36.148438-35.085938-40.058594-50.117188-40.058594-25 0-51.707031 10.523438-51.878906 40.042969.097656 14.492187 8.902344 28.921875 18.21875 44.1875zm0 0"/></svg>