<svg height="511pt" viewBox="0 0 511.99993 511" width="511pt" xmlns="http://www.w3.org/2000/svg"><path d="m186.007812 145.558594c9.214844 15.105468 17.921876 29.371094 17.921876 43.382812v24.734375c0 18.457031 12.886718 33.9375 30.089843 37.847657.910157 10.089843 8.550781 17.960937 18.90625 17.960937 10.371094 0 19.777344-7.894531 20.886719-18 17.226562-3.96875 30.109375-19.410156 30.109375-37.808594v-24.734375c0-13.246094 7.507813-25.832031 16.195313-40.40625 11.027343-18.484375 23.503906-39.410156 23.796874-67.242187.003907-.15625.003907-.308594.003907-.464844v-.535156c0-.15625 0-.3125-.003907-.464844-.5-47.492187-36.582031-79.328125-90.105468-79.328125-24.785156 0-46.578125 6.769531-63.03125 19.578125-18.34375 14.28125-28.558594 35.457031-28.839844 59.71875-.003906.164063-.007812.328125-.007812.496094v.535156c0 .1875.003906.375.007812.5625.355469 25.3125 12.945312 45.9375 24.070312 64.167969zm77.917969 46.929687v20h-20v-20zm-10.117187-151.992187c15.027344 0 49.9375 3.914062 50.113281 40.058594-.085937 17.191406-8.464844 31.242187-18.15625 47.496093-4.546875 7.621094-9.355469 15.695313-13.308594 24.441407h-36.996093c-4.445313-9.949219-10.042969-19.132813-15.3125-27.765626-9.316407-15.269531-18.121094-29.695312-18.21875-44.1875.171874-29.515624 26.878906-40.042968 51.878906-40.042968zm124.109375 65.996094c0-11.042969 8.953125-19.996094 20-19.996094h54.996093c11.046876 0 20 8.953125 20 19.996094v117.996093c0 11.042969-8.953124 19.996094-20 19.996094-11.046874 0-20-8.953125-20-19.996094v-97.996093h-34.996093c-11.046875 0-20-8.953126-20-20zm127.894531 331.972656-32.898438-60.171875v-52.8125c0-11.042969-8.953124-20-20-20-11.046874 0-20 8.957031-20 20v36.949219h-351.976562v-235.9375h26.996094c11.046875 0 20-8.953126 20-20 0-11.042969-8.953125-19.996094-20-19.996094h-46.996094c-11.046875 0-20 8.953125-20 19.996094v268.140624l-34.898438 63.832032c-8.398437 15.359375-8.019531 33.625 1.015626 48.863281 9.316406 15.710937 25.738281 25.09375 43.929687 25.09375h410.882813c17.871093 0 33.976562-9.167969 43.082031-24.527344 9.085937-15.320312 9.410156-33.800781.863281-49.429687zm-35.265625 29.03125c-.878906 1.480468-3.484375 4.925781-8.679687 4.925781h-137c-.546876-10.554687-9.253907-18.949219-19.945313-18.949219h-98.992187c-10.691407 0-19.398438 8.394532-19.945313 18.949219h-135c-5.8125 0-8.761719-4.207031-9.523437-5.496094-1.050782-1.769531-2.488282-5.324219-.328126-9.273437l30.195313-55.226563h369.195313l30.195312 55.226563c2.363281 4.324218.90625 8.023437-.171875 9.84375zm0 0"/></svg>