<svg height="512pt" viewBox="0 0 511 512" width="512pt" xmlns="http://www.w3.org/2000/svg"><path d="m511.203125 438.722656c3.761719 18.066406-.746094 36.621094-12.363281 50.910156-11.5625 14.214844-28.703125 22.367188-47.03125 22.367188h-390.617188c-18.328125 0-35.46875-8.152344-47.03125-22.367188-11.617187-14.289062-16.125-32.84375-12.363281-50.910156 12.003906-57.65625 43.800781-110.125 89.53125-147.742187 24.945313-20.515625 53.445313-36.066407 83.816406-46.0625-33.152343-24.824219-54.644531-64.410157-54.644531-108.917969 0-74.992188 61.007812-136 136-136 26.597656 0 53.636719 8.304688 76.136719 23.386719 9.175781 6.148437 11.628906 18.574219 5.476562 27.75-6.152343 9.175781-18.574219 11.625-27.75 5.476562-15.984375-10.714843-35.113281-16.613281-53.863281-16.613281-52.933594 0-96 43.066406-96 96 0 51.367188 40.550781 93.4375 91.320312 95.886719 1.558594-.03125 3.117188-.050781 4.679688-.050781 1.601562 0 3.199219.015624 4.792969.046874 25.144531-1.214843 48.273437-11.957031 65.558593-30.5625 7.519532-8.09375 20.171876-8.558593 28.265626-1.042968 8.09375 7.519531 8.558593 20.171875 1.042968 28.265625-5.59375 6.019531-11.695312 11.480469-18.203125 16.339843 54.320313 17.882813 101.964844 53.464844 134.773438 102.398438 6.152343 9.171875 3.703125 21.597656-5.472657 27.75-9.175781 6.152344-21.597656 3.699219-27.75-5.472656-40.148437-59.878906-106.523437-96.125-178.285156-97.652344-1.570312.054688-3.144531.09375-4.722656.09375-1.707031 0-3.398438-.042969-5.089844-.105469-101.640625 2.363281-189.683594 75.214844-210.453125 174.980469-1.296875 6.230469.246094 12.613281 4.238281 17.519531 2.308594 2.839844 7.460938 7.605469 15.996094 7.605469h390.613282c8.539062 0 13.6875-4.765625 16-7.605469 3.988281-4.90625 5.53125-11.289062 4.234374-17.519531-2.25-10.8125 4.691407-21.402344 15.503907-23.65625 10.816406-2.25 21.40625 4.691406 23.660156 15.503906zm1.296875-350.722656v40c0 22.054688-17.945312 40-40 40h-60c-11.046875 0-20-8.953125-20-20v-20h-32v20c0 11.046875-8.953125 20-20 20s-20-8.953125-20-20v-20h-30v30c0 11.046875-8.953125 20-20 20s-20-8.953125-20-20v-50c0-11.046875 8.953125-20 20-20h122v-20c0-11.046875 8.953125-20 20-20h60c22.054688 0 40 17.945312 40 40zm-40 0h-40v40h40zm0 0"/></svg>