<svg height="512pt" viewBox="0 0 512 512" width="512pt" xmlns="http://www.w3.org/2000/svg"><path d="m256.449219 401.824219c9.699219 8.472656 22.109375 14.175781 36.179687 14.175781 22.84375 0 43.351563-13.695312 52.25-34.890625.421875-1.007813 1.414063-2.183594 2.820313-2.1875l.761719-.003906c15.082031 0 29.398437-5.847657 40.3125-16.46875 11.109374-10.804688 17.226562-25.128907 17.226562-40.324219 0-9.949219-3.074219-19.953125-8.925781-29.246094 11.558593-11.820312 17.925781-27.234375 17.925781-43.550781 0-14.964844-5.386719-29.433594-15.167969-40.742187-6.378906-7.375-14.359375-13.089844-23.222656-16.785157.238281-1.859375.378906-3.742187.390625-5.636719.066406-11.984374-4.644531-23.355468-13.257812-32.015624-7.519532-7.558594-17.503907-12.410157-28.0625-13.761719-3.871094-24.003907-24.601563-42.386719-49.511719-42.386719-11.046875 0-21.535157 3.480469-30.160157 9.898438-8.628906-6.417969-19.117187-9.898438-30.164062-9.898438-24.746094 0-45.367188 18.316406-49.433594 42.367188-10.273437 1.347656-19.726562 5.988281-27.105468 13.40625-8.648438 8.695312-13.371094 20.21875-13.304688 32.445312.011719 1.757812.101562 3.488281.277344 5.1875-9.222656 3.679688-17.519532 9.535156-24.109375 17.152344-9.78125 11.3125-15.167969 25.78125-15.167969 40.746094 0 17.089843 6.804688 32.59375 17.804688 43.914062-5.121094 8.640625-7.804688 18.515625-7.804688 28.90625 0 31.289062 25.367188 56.75 56.550781 56.75h1.027344c1.003906 0 1.917969.652344 2.332031 1.664062 8.765625 21.542969 29.363282 35.460938 52.472656 35.460938 16.859376 0 28.679688-6.230469 37.066407-14.175781zm-52.492188-36.363281c-6.5625-16.132813-22.007812-26.566407-39.332031-26.585938h-1.074219c-9.125 0-16.550781-7.515625-16.550781-16.75 0-3.796875 1.125-7.277344 3.257812-10.070312.15625-.207032.285157-.421876.433594-.632813 2.71875.367187 5.492188.578125 8.308594.578125 11.046875 0 20-8.953125 20-20s-8.953125-20-20-20c-12.128906 0-22-10.179688-22-22.695312 0-10.902344 8.109375-20.382813 18.863281-22.050782 1.972657-.304687 3.832031-.898437 5.546875-1.714844.859375.109376 1.71875.1875 2.582032.1875 5.539062 0 11.054687-2.289062 15.003906-6.769531 7.308594-8.28125 6.519531-20.921875-1.761719-28.230469-.75-.660156-1.222656-2.46875-1.230469-4.726562-.011718-1.546875.550782-2.898438 1.664063-4.019531.753906-.753907 2.402343-2.023438 5.03125-2.023438h2.09375c17.03125 0 30.890625-13.855469 30.890625-30.957031 0-5.859375 4.75-11 10.160156-11 5.792969 0 10.164062 4.175781 10.164062 9.710938v142.289062c0 11.046875 8.953126 20 20 20 11.046876 0 20-8.953125 20-20v-142.289062c0-5.535157 4.367188-9.710938 10.160157-9.710938 5.507812 0 10.160156 4.816406 10.160156 10.585938 0 17.320312 13.859375 31.414062 30.898437 31.414062h2.414063c2.128906 0 4.277344.878906 5.742187 2.355469 1.082032 1.085937 1.625 2.292969 1.617188 3.589843-.011719 2.457032-1.402344 4.050782-2.230469 4.78125-8.28125 7.308594-9.074219 19.945313-1.765625 28.230469 4.566406 5.175781 11.214844 7.425781 17.582032 6.601563 1.71875.820312 3.578124 1.410156 5.554687 1.71875 10.75 1.664062 18.859375 11.144531 18.859375 22.050781 0 12.289063-10.53125 22.671875-23 22.671875-11.046875 0-20 8.953125-20 20s8.953125 20 20 20c3.121094 0 6.210938-.230469 9.25-.679688.171875.242188.320312.492188.503906.734376 2.738282 3.589843 4.246094 7.164062 4.246094 10.070312 0 8.945312-8.195312 16.792969-17.621094 16.792969l-.847656.003906c-17.242188.074219-32.761719 10.554687-39.539062 26.707031-2.640626 6.300782-8.675782 10.371094-15.363282 10.371094-8.777344 0-15.011718-9.257812-17.117187-14.589844-1.398438-5.910156-5.441407-11.117187-11.433594-13.734375-2.578125-1.128906-5.269531-1.664062-7.917969-1.671875-.472656-.007812-.953125.019532-1.433594.050782-.125.007812-.253906.007812-.378906.015624-1.417968.117188-2.839844.371094-4.25.800782-6.457031 1.976562-11.171875 6.925781-13.140625 12.882812-7.019531 15.464844-11.113281 16.246094-17.574219 16.246094-6.765624 0-12.820312-4.136719-15.425781-10.539062zm255.21875-189.640626c-4.648437-9.121093-1.640625-20.265624 7.054688-25.660156l.714843-.441406c9.691407-6.011719 22.511719-2.535156 27.703126 7.617188.175781.347656.355468.695312.53125 1.042968 5.144531 10.179688.390624 22.585938-10.175782 26.871094l-.78125.316406c-9.480468 3.84375-20.253906-.296875-24.882812-9.421875-.054688-.109375-.109375-.214843-.164063-.324219zm-42.015625-66.59375c-7.414062-7.070312-8.269531-18.597656-1.839844-26.574218l.511719-.632813c7.15625-8.882812 20.410157-9.847656 28.671875-1.988281.28125.265625.5625.535156.839844.800781 8.230469 7.898438 7.867188 21.179688-.679688 28.734375l-.609374.539063c-7.675782 6.785156-19.230469 6.457031-26.628907-.625-.089843-.085938-.175781-.167969-.265625-.253907zm-75.046875-71.34375.269531-.765624c3.792969-10.761719 15.980469-16.089844 26.394532-11.417969.355468.160156.710937.320312 1.066406.484375 10.390625 4.71875 14.457031 17.378906 8.894531 27.34375l-.398437.707031c-4.992188 8.941406-15.992188 12.460937-25.320313 8.238281-.113281-.050781-.222656-.101562-.335937-.152344-9.335938-4.203124-13.972656-14.78125-10.570313-24.4375zm-293.289062 299.296876c4.648437 9.121093 1.640625 20.265624-7.054688 25.660156l-.714843.441406c-9.691407 6.011719-22.511719 2.535156-27.703126-7.617188-.175781-.347656-.355468-.695312-.53125-1.042968-5.144531-10.179688-.390624-22.585938 10.175782-26.871094l.78125-.316406c9.480468-3.84375 20.253906.296875 24.882812 9.421875.054688.109375.109375.214843.164063.324219zm42.015625 66.59375c7.414062 7.070312 8.269531 18.597656 1.839844 26.574218l-.511719.632813c-7.15625 8.882812-20.410157 9.847656-28.671875 1.988281-.28125-.265625-.5625-.535156-.839844-.800781-8.230469-7.898438-7.867188-21.179688.679688-28.734375l.609374-.539063c7.675782-6.785156 19.230469-6.457031 26.628907.625.089843.085938.175781.167969.265625.253907zm75.046875 71.339843-.269531.765625c-3.792969 10.765625-15.980469 16.09375-26.394532 11.417969-.355468-.160156-.710937-.320313-1.066406-.480469-10.390625-4.71875-14.457031-17.378906-8.894531-27.34375l.398437-.710937c4.992188-8.941407 15.992188-12.457031 25.320313-8.234375.113281.050781.222656.101562.335937.152344 9.335938 4.203124 13.972656 14.78125 10.570313 24.433593zm-145.886719-199.113281c-11.046875 0-20-8.953125-20-20 0-68.378906 26.628906-132.667969 74.980469-181.019531 48.351562-48.351563 112.640625-74.980469 181.019531-74.980469 7.261719 0 14.539062.308594 21.773438.917969 11.605468.976562 19.828124 11.785156 17.878906 23.269531-1.738282 10.246094-11.035156 17.441406-21.394532 16.574219-6.066406-.507813-12.164062-.761719-18.257812-.761719-119.101562 0-216 96.898438-216 216 0 11.046875-8.953125 20-20 20zm492-20c0 68.417969-26.4375 132.691406-74.4375 180.976562-48.097656 48.378907-112.222656 75.023438-180.5625 75.023438-7.257812 0-14.53125-.308594-21.769531-.914062-11.605469-.980469-19.832031-11.78125-17.886719-23.265626 1.738281-10.25 11.035156-17.449218 21.394531-16.582031 6.070313.507813 12.171875.761719 18.261719.761719 118.550781 0 215-96.898438 215-216 0-11.046875 8.953125-20 20-20s20 8.953125 20 20zm0 0"/></svg>