<svg height="512pt" viewBox="0 0 512 512.00001" width="512pt" xmlns="http://www.w3.org/2000/svg"><path d="m488.527344 375.234375-42.386719-42.378906c-7.808594-7.808594-20.472656-7.808594-28.28125.003906-7.8125 7.8125-7.8125 20.476563 0 28.285156l9.84375 9.839844-56.691406 56.753906-59.507813-59.492187 38.855469-19.191406c21.140625-10.441407 34.34375-32.289063 33.632813-55.664063-.457032-15.085937-6.800782-29.507813-17.863282-40.601563l-32.28125-32.378906c-2.683594-2.6875-3.863281-5.550781-3.847656-7.191406.019531-1.515625 1.230469-4.34375 3.847656-6.96875l89.894532-90.164062c13.429687-13.472657 15.054687-33.671876 3.949218-49.121094-11.078125-15.40625-30.679687-20.292969-47.675781-11.878906l-141.628906 70.09375-79.160157-79.144532c-10.476562-10.492187-23.449218-18.5-37.519531-23.164062-.601562-.199219-1.210937-.371094-1.828125-.511719l-95.414062-21.855469c-6.707032-1.535156-13.734375.484375-18.601563 5.351563-4.867187 4.863281-6.894531 11.890625-5.359375 18.597656l21.816406 95.523437c.140626.617188.3125 1.226563.511719 1.828126 4.65625 14.078124 12.652344 27.0625 23.175781 37.597656l20.890626 20.777344c3.898437 3.882812 9 5.820312 14.101562 5.820312 5.136719 0 10.273438-1.96875 14.179688-5.898438 7.792968-7.832031 7.757812-20.492187-.074219-28.28125l-16.617188-16.527343 56.679688-56.75 65.375 65.363281-39.488281 19.542969c-21.691407 10.734375-35.050782 32.878906-34.035157 56.414062.625 14.472657 7.128907 28.617188 18.308594 39.832031l32.3125 32.410157c2.175781 2.179687 3.433594 4.929687 3.367187 7.355469-.058593 2.207031-1.316406 4.753906-3.363281 6.808593l-89.382812 89.648438c-13.425781 13.464843-15.054688 33.65625-3.957031 49.105469 7.445312 10.367187 18.753906 15.972656 30.535156 15.972656 5.726562 0 11.5625-1.320313 17.117187-4.066406l141.679688-69.980469 101.617187 101.597656c15.132813 15.125 35.242188 23.453125 56.636719 23.453125h.019531c21.394532-.003906 41.511719-8.34375 56.640625-23.476562 31.226563-31.242188 31.214844-82.0625-.023437-113.289063zm-389.902344-316.707031-40.132812 40.183594-11.898438-52.101563zm26.316406 357.25 81.027344-81.269532c9.351562-9.378906 14.6875-21.441406 15.023438-33.96875.359374-13.371093-5.113282-26.738281-15.023438-36.675781l-32.3125-32.414062c-4.050781-4.058594-6.484375-8.914063-6.671875-13.3125-.332031-7.609375 4.417969-15.179688 11.8125-18.835938l208.25-103.0625-81.527344 81.769531c-9.726562 9.757813-15.382812 22.429688-15.519531 34.773438-.136719 12.765625 5.519531 25.839844 15.519531 35.871094l32.28125 32.378906c3.855469 3.867188 6.0625 8.6875 6.210938 13.574219.234375 7.765625-4.226563 15.058593-11.367188 18.585937zm335.316406 44.46875c-7.574218 7.578125-17.644531 11.75-28.359374 11.753906 0 0-.003907 0-.007813 0-10.710937 0-20.78125-4.171875-28.355469-11.742188l-4.238281-4.238281 56.695313-56.753906 4.253906 4.253906c15.644531 15.636719 15.648437 41.082031.011718 56.726563zm0 0"/></svg>