<svg height="511pt" viewBox="0 1 511 511.999" width="511pt" xmlns="http://www.w3.org/2000/svg"><path d="m236.3125 225.90625.105469-155.46875c0-17.074219-13.703125-30.453125-31.195313-30.453125-17.203125 0-31.199218 14.277344-31.199218 31.824219v.113281c0 21.222656-17.265626 38.484375-38.484376 38.484375h-3.925781c-6.925781 0-13.742187 2.882812-18.695312 7.902344-4.714844 4.773437-7.265625 10.921875-7.183594 17.3125.089844 7.101562 3.085937 13.609375 8.433594 18.328125 5.820312 5.140625 8.140625 13.183593 5.949219 20.628906-2.1875 7.449219-8.492188 12.957031-16.167969 14.125l-19.6875 3c-24.933594 3.863281-43.777344 25.890625-43.777344 51.230469 0 28.59375 23.261719 51.859375 51.859375 51.859375 11.039062 0 19.992188 8.949219 19.992188 19.992187 0 11.039063-8.953126 19.992188-19.992188 19.992188-7.601562 0-14.988281-.9375-22.054688-2.683594-5.710937 6.519531-13.066406 18.101562-13.066406 34.476562 0 23.3125 18.964844 42.273438 42.273438 42.273438l1.738281.003906c23.78125.023438 44.925781 14.328125 53.917969 36.441406 6.605468 16.234376 21.953125 26.726563 39.097656 26.726563 7.101562 0 12.921875-1.09375 17.785156-3.339844 10.019532-4.632812 21.902344-.257812 26.535156 9.765625 4.628907 10.023438.253907 21.902344-9.769531 26.535156-10.234375 4.726563-21.535156 7.023438-34.550781 7.023438-33.484375 0-63.371094-20.273438-76.132812-51.644531-2.84375-6.992188-9.464844-11.515625-16.863282-11.523438l-1.757812-.003906c-45.355469 0-82.257813-36.898437-82.257813-82.257813 0-22.894531 8.140625-40.507812 16.765625-52.753906-20.449218-16.859375-33.503906-42.375-33.503906-70.882812 0-22.050782 7.933594-43.375 22.339844-60.039063 12.097656-13.984375 28.078125-23.957031 45.738281-28.6875-1.777344-5.808593-2.746094-11.890625-2.824219-18.070312-.222656-17.167969 6.421875-33.476563 18.707032-45.917969 12.417968-12.582031 29.605468-19.796875 47.15625-19.796875h2.4375c.734374-38.957031 32.378906-70.421875 71.167968-70.421875 18.992188 0 36.808594 7.199219 50.171875 20.269531.351563.339844.675781.695313 1.015625 1.042969.339844-.347656.667969-.703125 1.015625-1.042969 13.363281-13.070312 31.179688-20.269531 50.175781-20.269531 38.789063 0 70.429688 31.464844 71.167969 70.421875h2.609375c17.378906 0 34.429688 7.128906 46.792969 19.558594 12.28125 12.34375 18.992187 28.566406 18.898437 45.667969-.035156 6.367187-1.007812 12.628906-2.839843 18.605468 30.207031 8.125 54.796875 31.539063 64.0625 61.816406 3.230469 10.5625-2.710938 21.738282-13.269531 24.96875-10.558594 3.234376-21.734376-2.707031-24.964844-13.265624-5.777344-18.875-22.09375-33.023438-41.570313-36.039063l-19.65625-3.035156c-7.667969-1.183594-13.957031-6.695313-16.136719-14.140625-2.183593-7.441406.140626-15.472656 5.953126-20.605469 5.324218-4.699219 8.398437-11.449219 8.4375-18.519531.035156-6.382813-2.546876-12.511719-7.265626-17.257813-4.910156-4.9375-11.632812-7.769531-18.441406-7.769531h-4.097656c-21.222656 0-38.484375-17.261719-38.484375-38.484375v-.113281c0-17.546875-13.996094-31.824219-31.199219-31.824219-17.492187 0-31.199218 13.378906-31.199218 30.453125l-.105469 155.496094c-.007813 11.039062-8.957031 19.976562-19.992188 19.980468-.003906 0-.007812 0-.015625 0-11.039062-.007812-19.980468-8.964843-19.972656-20.007812zm275.996094 150.953125c0 36.046875-14.039063 69.933594-39.527344 95.421875s-59.375 39.527344-95.421875 39.527344c-36.042969 0-69.933594-14.035156-95.421875-39.527344-25.488281-25.488281-39.523438-59.375-39.523438-95.421875 0-36.042969 14.035157-69.933594 39.523438-95.417969 25.488281-25.488281 59.378906-39.527344 95.421875-39.527344 36.046875 0 69.933594 14.035157 95.421875 39.527344 25.488281 25.484375 39.527344 59.375 39.527344 95.417969zm-67.800782-67.148437c-18.511718-18.511719-42.832031-27.769532-67.148437-27.769532s-48.636719 9.257813-67.148437 27.769532c-37.027344 37.027343-37.027344 97.273437 0 134.300781 37.023437 37.023437 97.273437 37.023437 134.296874 0 37.027344-37.027344 37.027344-97.273438 0-134.300781zm-24.738281 24.742187c-7.808593-7.808594-20.464843-7.808594-28.273437 0l-14.136719 14.136719-14.136719-14.136719c-7.808594-7.808594-20.464844-7.808594-28.273437 0-7.808594 7.804687-7.808594 20.464844 0 28.269531l14.136719 14.136719-14.136719 14.136719c-7.808594 7.808594-7.808594 20.46875 0 28.273437 3.902343 3.90625 9.019531 5.855469 14.136719 5.855469 5.117187 0 10.234374-1.949219 14.136718-5.855469l14.136719-14.136719 14.136719 14.136719c3.90625 3.90625 9.019531 5.855469 14.136718 5.855469 5.117188 0 10.234376-1.949219 14.140626-5.855469 7.804687-7.808593 7.804687-20.464843 0-28.273437l-14.136719-14.136719 14.136719-14.136719c7.804687-7.804687 7.804687-20.464844-.003907-28.269531zm0 0"/></svg>