<svg height="512pt" viewBox="0 0 512 512" width="512pt" xmlns="http://www.w3.org/2000/svg"><path d="m512 46c0 11.046875-8.953125 20-20 20h-10v176c0 11.046875-8.953125 20-20 20s-20-8.953125-20-20v-176h-372v276c0 22.054688 17.945312 40 40 40h292c22.054688 0 40-17.945312 40-40 0-11.046875 8.953125-20 20-20s20 8.953125 20 20c0 44.113281-35.886719 80-80 80h-126v50h85c11.046875 0 20 8.953125 20 20s-8.953125 20-20 20h-209c-11.046875 0-20-8.953125-20-20s8.953125-20 20-20h84v-50h-126c-44.113281 0-80-35.886719-80-80v-276h-10c-11.046875 0-20-8.953125-20-20s8.953125-20 20-20h216v-6c0-11.046875 8.953125-20 20-20s20 8.953125 20 20v6h216c11.046875 0 20 8.953125 20 20zm-274 141c0 11.046875-8.953125 20-20 20h-92c-11.046875 0-20-8.953125-20-20v-69c0-11.046875 8.953125-20 20-20h92c11.046875 0 20 8.953125 20 20zm-40-49h-52v29h52zm208 49c0 11.046875-8.953125 20-20 20h-92c-11.046875 0-20-8.953125-20-20v-69c0-11.046875 8.953125-20 20-20h92c11.046875 0 20 8.953125 20 20zm-40-49h-52v29h52zm-128 123v69c0 11.046875-8.953125 20-20 20h-92c-11.046875 0-20-8.953125-20-20v-69c0-11.046875 8.953125-20 20-20h92c11.046875 0 20 8.953125 20 20zm-40 20h-52v29h52zm208-20v69c0 11.046875-8.953125 20-20 20h-92c-11.046875 0-20-8.953125-20-20v-69c0-11.046875 8.953125-20 20-20h92c11.046875 0 20 8.953125 20 20zm-40 20h-52v29h52zm0 0"/></svg>