<svg height="511pt" viewBox="0 0 511 511.996" width="511pt" xmlns="http://www.w3.org/2000/svg"><path d="m236.308594 225.90625.109375-155.46875c0-17.074219-13.707031-30.453125-31.199219-30.453125-17.203125 0-31.195312 14.277344-31.195312 31.824219v.113281c0 21.222656-17.265626 38.484375-38.484376 38.484375h-3.925781c-6.925781 0-13.742187 2.882812-18.699219 7.902344-4.710937 4.773437-7.261718 10.921875-7.179687 17.3125.089844 7.101562 3.085937 13.609375 8.433594 18.332031 5.820312 5.136719 8.140625 13.179687 5.949219 20.625-2.1875 7.449219-8.492188 12.957031-16.167969 14.125l-19.6875 3c-24.933594 3.863281-43.777344 25.890625-43.777344 51.230469 0 28.59375 23.261719 51.859375 51.855469 51.859375 11.042968 0 19.992187 8.949219 19.992187 19.992187 0 11.039063-8.949219 19.992188-19.992187 19.992188-7.597656 0-14.984375-.9375-22.050782-2.683594-5.710937 6.519531-13.066406 18.097656-13.066406 34.476562 0 23.308594 18.964844 42.273438 42.273438 42.273438h1.777344c23.742187.023438 44.886718 14.332031 53.878906 36.445312 6.605468 16.234376 21.953125 26.722657 39.097656 26.722657 7.101562 0 12.921875-1.089844 17.785156-3.339844 10.027344-4.628906 21.902344-.253906 26.535156 9.769531 4.628907 10.023438.253907 21.902344-9.769531 26.53125-10.230469 4.726563-21.535156 7.023438-34.550781 7.023438-33.488281 0-63.371094-20.269532-76.132812-51.644532-2.84375-6.992187-9.464844-11.515624-16.867188-11.523437h-1.753906c-45.355469 0-82.257813-36.902344-82.257813-82.257813 0-22.898437 8.140625-40.507812 16.761719-52.753906-20.445312-16.859375-33.503906-42.375-33.503906-70.882812 0-22.054688 7.9375-43.375 22.34375-60.042969 12.09375-13.980469 28.078125-23.953125 45.738281-28.683594-1.777344-5.808593-2.746094-11.890625-2.824219-18.070312-.222656-17.167969 6.421875-33.476563 18.707032-45.917969 12.417968-12.582031 29.605468-19.796875 47.152343-19.796875h2.4375c.738281-38.957031 32.378907-70.421875 71.167969-70.421875 18.992188 0 36.8125 7.199219 50.175781 20.269531.347657.339844.675781.695313 1.015625 1.042969.339844-.347656.667969-.703125 1.011719-1.042969 13.363281-13.070312 31.183594-20.269531 50.175781-20.269531 38.789063 0 70.433594 31.464844 71.167969 70.421875h2.613281c17.375 0 34.429688 7.128906 46.792969 19.558594 12.28125 12.347656 18.992187 28.566406 18.898437 45.667969-.035156 6.367187-1.011718 12.628906-2.84375 18.605468 30.210938 8.125 54.796876 31.539063 64.0625 61.816406 3.230469 10.5625-2.707031 21.738282-13.265624 24.96875-10.558594 3.230469-21.738282-2.707031-24.96875-13.265624-5.773438-18.875-22.09375-33.023438-41.570313-36.039063l-19.65625-3.035156c-7.664063-1.183594-13.953125-6.695313-16.136719-14.136719-2.179687-7.445312.140625-15.476562 5.957032-20.609375 5.324218-4.699219 8.398437-11.449219 8.4375-18.519531.035156-6.382813-2.546876-12.511719-7.265626-17.257813-4.910156-4.933593-11.632812-7.765625-18.445312-7.765625h-4.097656c-21.21875 0-38.484375-17.265625-38.484375-38.484375v-.117187c0-17.546875-13.992188-31.824219-31.195313-31.824219-17.492187 0-31.195312 13.378906-31.195312 30.457031l-.109375 155.492188c-.007813 11.039062-8.957031 19.980468-19.992188 19.980468-.003906 0-.007812 0-.015625 0-11.039062-.007812-19.984375-8.964843-19.976562-20.007812zm275.996094 150.953125c0 74.410156-60.535157 134.949219-134.945313 134.949219s-134.949219-60.539063-134.949219-134.949219c0-74.40625 60.539063-134.945313 134.949219-134.945313s134.945313 60.539063 134.945313 134.945313zm-39.984376 0c0-52.359375-42.601562-94.960937-94.960937-94.960937-52.363281 0-94.964844 42.601562-94.964844 94.960937 0 52.363281 42.601563 94.964844 94.964844 94.964844 52.359375 0 94.960937-42.601563 94.960937-94.964844zm-54.976562-19.992187h-19.992188v-19.992188c0-11.039062-8.953124-19.992188-19.992187-19.992188-11.042969 0-19.992187 8.953126-19.992187 19.992188v19.992188h-19.992188c-11.042969 0-19.992188 8.953124-19.992188 19.992187 0 11.042969 8.949219 19.992187 19.992188 19.992187h19.992188v19.992188c0 11.042969 8.949218 19.992188 19.992187 19.992188 11.039063 0 19.992187-8.949219 19.992187-19.992188v-19.992188h19.992188c11.039062 0 19.992188-8.949218 19.992188-19.992187 0-11.039063-8.953126-19.992187-19.992188-19.992187zm0 0"/></svg>