<svg height="512pt" viewBox="0 0 512 512" width="512pt" xmlns="http://www.w3.org/2000/svg"><path d="m401 66c11.046875 0 20 8.953125 20 20s-8.953125 20-20 20-20-8.953125-20-20 8.953125-20 20-20zm-14-26c11.046875 0 20-8.953125 20-20s-8.953125-20-20-20-20 8.953125-20 20 8.953125 20 20 20zm-8 129c11.046875 0 20-8.953125 20-20s-8.953125-20-20-20-20 8.953125-20 20 8.953125 20 20 20zm-272-64c11.046875 0 20-8.953125 20-20s-8.953125-20-20-20-20 8.953125-20 20 8.953125 20 20 20zm14-65c11.046875 0 20-8.953125 20-20s-8.953125-20-20-20-20 8.953125-20 20 8.953125 20 20 20zm-13 109c0 11.046875 8.953125 20 20 20s20-8.953125 20-20-8.953125-20-20-20-20 8.953125-20 20zm404 253v90c0 11.046875-8.953125 20-20 20h-103c-11.046875 0-20-8.953125-20-20v-90c0-11.046875 8.953125-20 20-20h103c11.046875 0 20 8.953125 20 20zm-40 20h-63v50h63zm-144-20v90c0 11.046875-8.953125 20-20 20h-104c-11.046875 0-20-8.953125-20-20v-90c0-11.046875 8.953125-20 20-20h32v-51h-105c-22.054688 0-40 17.945312-40 40v11h32c11.046875 0 20 8.953125 20 20v90c0 11.046875-8.953125 20-20 20h-103c-11.046875 0-20-8.953125-20-20v-90c0-11.046875 8.953125-20 20-20h31v-11c0-44.113281 35.886719-80 80-80h105v-39.761719c-17.65625-3.558593-31-19.265625-31-38.050781v-24.734375c0-14.011719-8.707031-28.28125-17.925781-43.386719-11.125-18.226562-23.710938-38.855468-24.066407-64.171875-.003906-.183593-.007812-.371093-.007812-.558593v-.539063c0-.164063.003906-.328125.007812-.496094.277344-24.265625 10.496094-45.441406 28.839844-59.722656 16.453125-12.808594 38.25-19.578125 63.035156-19.578125 53.527344 0 89.613282 31.835938 90.113282 79.332031 0 .15625.003906.308594.003906.464844v.539063c0 .152343-.003906.308593-.003906.460937-.296875 27.832031-12.773438 48.761719-23.800782 67.246094-8.6875 14.574219-16.195312 27.160156-16.195312 40.410156v24.734375c0 18.003906-12.332031 33.183594-29 37.546875v40.265625h105c19.714844 0 38.660156 7.238281 53.34375 20.378906 8.226562 7.363282 8.929688 20.011719 1.5625 28.238282-7.371094 8.230468-20.011719 8.933593-28.242188 1.566406-7.335937-6.566406-16.804687-10.183594-26.664062-10.183594h-105v51h32c11.046875 0 20 8.953125 20 20zm-63-190v-20h-20v20zm-43.777344-87.769531c5.269532 8.636719 10.871094 17.820312 15.3125 27.769531h37c3.949219-8.746094 8.761719-16.820312 13.308594-24.445312 9.691406-16.253907 18.070312-30.300782 18.15625-47.496094-.175781-36.148438-35.085938-40.058594-50.117188-40.058594-25 0-51.707031 10.523438-51.882812 40.042969.101562 14.492187 8.902344 28.921875 18.222656 44.1875zm-118.222656 297.769531h-63v50h63zm185 0h-64v50h64zm0 0"/></svg>