<svg height="512pt" viewBox="0 0 512.00037 512" width="512pt" xmlns="http://www.w3.org/2000/svg"><path d="m465.0625 270.6875c-10.113281-4.441406-21.914062.160156-26.351562 10.273438-8.410157 19.164062-27.050782 32.039062-46.378907 32.039062h-240.390625l-17.851562-164h30.910156c11.046875 0 20-8.953125 20-20s-8.953125-20-20-20h-35.265625l-1.480469-13.632812-.054687-.4375c-7.101563-54.117188-53.617188-94.929688-108.199219-94.929688-11.046875 0-20 8.953125-20 20s8.953125 20 20 20c34.507812 0 63.921875 25.75 68.511719 59.929688l23.773437 218.417968c-20.785156 9.4375-35.285156 30.375-35.285156 54.652344 0 .167969.019531.332031.023438.5-.003907.167969-.023438.332031-.023438.5 0 33.085938 26.914062 60 60 60h8.15625c-2.035156 5.96875-3.15625 12.351562-3.15625 19 0 32.53125 26.46875 59 59 59s59-26.46875 59-59c0-6.648438-1.121094-13.03125-3.15625-19h86.3125c-2.035156 5.96875-3.15625 12.351562-3.15625 19 0 32.53125 26.46875 59 59 59s59-26.46875 59-59-26.46875-59-59-59h-262c-11.027344 0-20-8.972656-20-20 0-.167969-.019531-.332031-.023438-.5.003907-.167969.023438-.332031.023438-.5 0-11.027344 8.972656-20 20-20h255.332031c35.503907 0 68.082031-21.964844 83.003907-55.960938 4.441406-10.113281-.160157-21.914062-10.273438-26.351562zm-245.0625 182.3125c0 10.476562-8.523438 19-19 19s-19-8.523438-19-19 8.523438-19 19-19 19 8.523438 19 19zm179 19c-10.476562 0-19-8.523438-19-19s8.523438-19 19-19 19 8.523438 19 19-8.523438 19-19 19zm112.578125-338.914062-14.808594 71c-1.96875 9.433593-10.285156 15.917968-19.558593 15.917968-1.351563 0-2.726563-.136718-4.101563-.425781-10.8125-2.253906-17.75-12.847656-15.496094-23.660156l9.785157-46.917969h-31.398438c-11.046875 0-20-8.953125-20-20s8.953125-20 20-20h56c6.019531 0 11.722656 2.710938 15.519531 7.382812 3.796875 4.671876 5.289063 10.808594 4.058594 16.703126zm-278.503906 11.980468c9.21875 15.105469 17.925781 29.375 17.925781 43.386719v24.734375c0 18.460938 12.890625 33.941406 30.09375 37.851562.910156 10.085938 8.546875 17.960938 18.90625 17.960938 10.371094 0 19.777344-7.894531 20.890625-18 17.222656-3.972656 30.109375-19.410156 30.109375-37.8125v-24.734375c0-13.246094 7.507812-25.832031 16.195312-40.40625 11.027344-18.488281 23.507813-39.414063 23.796876-67.25.003906-.152344.007812-.308594.007812-.460937v-.539063c0-.152344-.003906-.308594-.007812-.460937-.496094-47.5-36.582032-79.335938-90.109376-79.335938-24.785156 0-46.582031 6.769531-63.035156 19.578125-18.34375 14.28125-28.5625 35.460937-28.839844 59.726563-.003906.164062-.007812.328124-.007812.492187v.535156c0 .1875.003906.375.007812.5625.355469 25.3125 12.945313 45.941407 24.066407 64.171875zm77.925781 46.933594v20h-20v-20zm-10.117188-152c15.027344 0 49.941407 3.910156 50.117188 40.0625-.085938 17.191406-8.464844 31.242188-18.15625 47.496094-4.546875 7.621094-9.359375 15.695312-13.308594 24.441406h-37.003906c-4.441406-9.949219-10.042969-19.132812-15.3125-27.769531-9.316406-15.265625-18.121094-29.695313-18.21875-44.1875.171875-29.515625 26.882812-40.042969 51.882812-40.042969zm0 0"/></svg>