<svg height="512pt" viewBox="-31 0 512 512" width="512pt" xmlns="http://www.w3.org/2000/svg"><path d="m380.140625 123.425781-77.566406-77.566406c-3.777344-3.777344-8.800781-5.859375-14.144531-5.859375h-188.316407c-22.058593 0-40 17.945312-40 40v190c0 11.046875-8.957031 20-20 20-11.046875 0-20-8.953125-20-20v-190c0-44.113281 35.886719-80 80-80h188.316407c16.027343 0 31.09375 6.242188 42.429687 17.574219l77.566406 77.566406c11.332031 11.332031 17.574219 26.398437 17.574219 42.425781v132.433594c0 11.042969-8.957031 20-20 20-11.046875 0-20-8.957031-20-20v-132.433594c0-5.339844-2.082031-10.363281-5.859375-14.140625zm-308.140625 246.574219c11.265625 0 21.496094 5.753906 27.363281 15.398438 5.746094 9.433593 18.050781 12.429687 27.484375 6.683593 9.433594-5.742187 12.429688-18.046875 6.683594-27.480469-13.1875-21.667968-36.1875-34.601562-61.53125-34.601562-39.699219 0-72 32.296875-72 72v38c0 39.699219 32.300781 71.996094 72 71.996094 25.34375 0 48.34375-12.933594 61.53125-34.601563 5.746094-9.433593 2.75-21.738281-6.683594-27.480469-9.433594-5.742187-21.738281-2.75-27.484375 6.6875-5.867187 9.640626-16.097656 15.398438-27.363281 15.398438-17.644531 0-32-14.355469-32-32v-38c0-17.648438 14.355469-32 32-32zm222 32v38c0 39.699219-32.300781 71.996094-72 71.996094h-32c-11.046875 0-20-8.953125-20-19.996094v-142c0-11.046875 8.953125-20 20-20h32c39.699219 0 72 32.296875 72 72zm-40 0c0-17.648438-14.355469-32-32-32h-12v102h12c17.644531 0 32-14.355469 32-32zm186.398438 106.429688c-3.472657 2.414062-7.449219 3.570312-11.382813 3.570312-6.335937 0-12.5625-3.003906-16.449219-8.601562l-33.582031-48.398438h-10.984375v37c0 11.042969-8.957031 19.996094-20 19.996094-11.046875 0-20-8.953125-20-19.996094v-141c0-11.046875 8.953125-20 20-20h39c34.183594 0 62 27.8125 62 62 0 21.753906-11.277344 40.917969-28.28125 51.984375l24.710938 35.613281c6.296874 9.074219 4.046874 21.535156-5.03125 27.832032zm-72.398438-93.429688h19c12.128906 0 22-9.871094 22-22 0-12.132812-9.871094-22-22-22h-19zm0 0"/></svg>