<svg height="512pt" viewBox="0 0 512.00101 512" width="512pt" xmlns="http://www.w3.org/2000/svg"><path d="m156.628906 95.988281 18.695313 12.925781c-.066407 1.355469-.101563 2.714844-.101563 4.085938 0 1.226562.035156 2.449219.089844 3.671875.019531.421875.050781.84375.074219 1.265625.027343.429688.042969.863281.078125 1.292969l-18.960938 15.175781c-7.679687 6.144531-9.75 16.960938-4.886718 25.507812l9.09375 15.976563c4.828124 8.492187 15.082031 12.25 24.257812 8.890625l21.929688-8.027344c4.773437 3.625 9.933593 6.699219 15.386718 9.164063l4.253906 23.625c1.714844 9.527343 10.003907 16.457031 19.683594 16.457031h18c9.824219 0 18.195313-7.136719 19.75-16.839844l3.683594-23.035156c.492188-.21875.976562-.453125 1.460938-.679688.335937-.15625.671874-.308593 1.003906-.472656.859375-.417968 1.707031-.855468 2.542968-1.304687.726563-.382813 1.441407-.789063 2.15625-1.195313.0625-.039062.128907-.074218.191407-.113281 3.910156-2.25 7.628906-4.808594 11.085937-7.664063l23.382813 6.710938c9.261719 2.65625 19.097656-1.660156 23.40625-10.273438l8.046875-16.082031c4.410156-8.8125 1.742187-19.519531-6.28125-25.238281l-19.484375-13.882812c.039062-.976563.054687-1.953126.054687-2.929688 0-1.203125-.035156-2.402344-.089844-3.605469-.015624-.351562-.035156-.699219-.054687-1.050781-.019531-.292969-.027344-.582031-.046875-.875l19.820312-14.214844c8.308594-5.957031 10.785157-17.214844 5.75-26.109375l-10.195312-18c-4.863281-8.582031-15.253906-12.339843-24.480469-8.847656l-22.8125 8.632813c-2.046875-1.535157-4.171875-2.945313-6.351562-4.273438-.035157-.023438-.070313-.046875-.109375-.070312-.914063-.554688-1.84375-1.082032-2.78125-1.597657-.269532-.152343-.539063-.304687-.8125-.453125-.832032-.449218-1.667969-.875-2.515625-1.289062-.402344-.203125-.808594-.398438-1.214844-.59375-.390625-.183594-.773437-.386719-1.167969-.566406l-4.253906-23.628907c-1.714844-9.527343-10.003906-16.457031-19.683594-16.457031h-19c-9.976562 0-18.425781 7.347656-19.808594 17.226562l-3.203124 22.882813c-5.886719 2.664063-11.425782 6.035156-16.507813 10.046875l-23.207031-7.246094c-9.441406-2.949218-19.621094 1.449219-23.945313 10.339844l-8.535156 17.539062c-4.320313 8.878907-1.511719 19.585938 6.613281 25.199219zm58.65625 14.796875c.007813-.09375.015625-.183594.023438-.277344.039062-.664062.097656-1.328124.171875-1.996093.007812-.054688.015625-.109375.019531-.167969.085938-.703125.183594-1.402344.304688-2.105469.007812-.035156.011718-.070312.019531-.101562.121093-.707031.265625-1.410157.425781-2.109375 1.671875-7.273438 5.332031-13.796875 10.378906-18.960938.144532-.144531.285156-.292968.429688-.4375.398437-.394531.804687-.785156 1.21875-1.164062.09375-.085938.1875-.167969.285156-.25.832031-.75 1.695312-1.460938 2.589844-2.136719.074218-.054687.144531-.113281.214844-.164063 1.449218-1.082031 2.976562-2.0625 4.5625-2.941406.121093-.066406.238281-.132812.359374-.195312.503907-.273438 1.011719-.535156 1.523438-.785156.164062-.078126.332031-.152344.496094-.230469.816406-.378907 1.648437-.730469 2.492187-1.058594.339844-.132813.675781-.265625 1.019531-.386719.402344-.144531.808594-.28125 1.214844-.410156.542969-.175781 1.09375-.335938 1.648438-.488281 3.359375-.917969 6.890625-1.417969 10.539062-1.417969 3.714844 0 7.3125.523438 10.730469 1.476562.550781.152344 1.101563.316407 1.644531.496094.328125.105469.652344.214844.972656.328125.480469.171875.957032.355469 1.429688.542969.457031.183594.910156.371094 1.355469.570312.480469.210938.953125.425782 1.421875.65625.351562.171876.695312.351563 1.042968.535157.375.199219.75.40625 1.125.617187.320313.1875.648438.367188.96875.558594.597657.367188 1.191407.75 1.773438 1.144531.289062.199219.570312.40625.855469.609375.394531.289063.785156.578125 1.171875.878906.253906.199219.511718.394532.761718.597657.582032.476562 1.152344.96875 1.710938 1.476562.183594.167969.355469.339844.535156.511719.4375.414062.863282.835938 1.28125 1.273438 4.875 5.054687 8.429688 11.386718 10.117188 18.4375.128906.546874.25 1.097656.359375 1.652343.046875.238281.085937.476563.128906.71875.089844.527344.171875 1.054688.246094 1.585938.03125.242187.0625.484375.089843.726562.066407.550781.113282 1.105469.15625 1.664063.015626.214844.035157.429687.046876.644531.046874.765625.070312 1.53125.070312 2.300781 0 1.382813-.070312 2.765625-.210938 4.144532-.007812.058593-.019531.121093-.027343.183593-.0625.613281-.140625 1.226563-.234375 1.835938-.039063.25-.089844.492187-.132813.742187-.070312.410156-.140625.820313-.226562 1.226563-1.167969 5.636719-3.535157 10.839843-6.808594 15.339843-1.199219.953126-2.3125 2.042969-3.289063 3.28125-2.8125 3.574219-6.507812 6.5625-10.773437 8.796876-.132813.070312-.261719.136718-.394531.203124-.757813.382813-1.527344.746094-2.316406 1.082032-.199219.085937-.398438.160156-.597657.238281-.621093.253906-1.253906.492187-1.894531.710937-.265625.09375-.527344.183594-.796875.269532-.808594.261718-1.628906.507812-2.460937.71875-3.148438.796875-6.441407 1.226562-9.832032 1.226562-3.707031 0-7.292968-.519531-10.703125-1.46875-.574219-.15625-1.140625-.328125-1.707031-.511718-.320312-.105469-.636719-.214844-.957031-.324219-.5-.179688-.996094-.371094-1.488281-.570313-.476563-.191406-.953126-.390625-1.417969-.601562-.441407-.195313-.878907-.394532-1.308594-.605469-.371094-.183594-.734375-.371094-1.097656-.5625-.355469-.191406-.707031-.386719-1.058594-.585937-.5-.285157-.996094-.582032-1.480469-.886719-.429687-.269531-.855468-.542969-1.273437-.828125-.335938-.226563-.660157-.464844-.984375-.699219-.351563-.257813-.695313-.515625-1.035156-.78125-.292969-.226563-.585938-.449219-.871094-.6875-.554688-.453125-1.09375-.925781-1.625-1.410156-.25-.230469-.492188-.46875-.738282-.703125-.363281-.355469-.726562-.71875-1.082031-1.085938-4.847656-5.042968-8.382812-11.351562-10.066406-18.375-.136719-.566406-.261719-1.140625-.375-1.714844-.039063-.21875-.078125-.441406-.117187-.660156-.097657-.546875-.179688-1.09375-.253907-1.640625-.03125-.226562-.0625-.457031-.085937-.6875-.066406-.5625-.117188-1.125-.15625-1.691406-.015625-.207031-.035156-.414063-.046875-.621094-.042969-.765625-.070313-1.53125-.070313-2.296875 0-.742187.023438-1.480468.0625-2.21875zm237.578125 144.054688c-.003906-.03125-.007812-.066406-.011719-.097656l54.746094-68.226563c4.15625-5.175781 5.472656-12.074219 3.515625-18.414063-1.960937-6.34375-6.933593-11.300781-13.28125-13.234374l-72-21.9375c-10.570312-3.21875-21.746093 2.738281-24.960937 13.304687-3.21875 10.566406 2.734375 21.742187 13.300781 24.960937l43.742187 13.328126-46.386718 57.804687-151.40625 43.199219c-1.382813.058594-2.757813.269531-4.113282.621094-1.34375-.347657-2.707031-.558594-4.074218-.621094l-151.730469-43.535156-46.117187-57.46875 43.742187-13.328126c10.566406-3.21875 16.523437-14.394531 13.304687-24.960937-3.21875-10.5625-14.390624-16.523437-24.960937-13.304687l-72 21.9375c-6.347656 1.9375-11.324219 6.894531-13.28125 13.234374-1.957031 6.339844-.640625 13.238282 3.511719 18.414063l55.222656 68.816406-55.546875 73.066407c-3.925781 5.160156-5.101563 11.910156-3.15625 18.097656s6.769531 11.050781 12.945313 13.039062l46.132812 14.871094v26.820312c0 35.542969 23.871094 67.175782 58.050781 76.929688l99.078125 28.265625c13.011719 3.714844 26.394532 5.570313 39.773438 5.570313 13.453125 0 26.910156-1.875 39.984375-5.628907l98.175781-28.167969c34.113281-9.792968 57.9375-41.414062 57.9375-76.898437v-27.300781l45.101562-14.449219c6.160157-1.972656 10.984376-6.800781 12.949219-12.960937 1.96875-6.160157.835938-12.894532-3.039062-18.070313zm-362.367187 25.980468 127.042968 36.453126-39.125 53.269531-125.402343-40.417969zm38.53125 158.871094c-17.089844-4.878906-29.027344-20.695312-29.027344-38.464844v-13.929687l79.867188 25.742187c2.019531.648438 4.085937.964844 6.128906.964844 6.25 0 12.285156-2.9375 16.125-8.164062l33.878906-46.128906v110.164062c-2.648438-.539062-5.285156-1.171875-7.898438-1.917969zm283.972656-38.394531c0 17.742187-11.910156 33.554687-28.96875 38.445313l-98.175781 28.171874c-3.253907.933594-6.546875 1.695313-9.855469 2.308594v-109.851562l32.792969 45.347656c3.832031 5.300781 9.910156 8.28125 16.210937 8.28125 2.03125 0 4.089844-.308594 6.097656-.953125l81.898438-26.238281zm-80.289062-30.765625-38.4375-53.152344 128.082031-36.542968 36.8125 49.179687zm0 0"/></svg>