<svg height="512pt" viewBox="0 -20 512 512" width="512pt" xmlns="http://www.w3.org/2000/svg"><path d="m255 195c-76.09375 0-138 61.90625-138 138s61.90625 138 138 138 138-61.90625 138-138-61.90625-138-138-138zm0 236c-54.039062 0-98-43.964844-98-98s43.960938-98 98-98 98 43.964844 98 98-43.960938 98-98 98zm-12.597656-110.726562c-7.019532 7.015624-7.019532 18.4375 0 25.453124 7.019531 7.019532 18.4375 7.019532 25.457031 0 7.808594-7.8125 20.472656-7.8125 28.28125 0 7.8125 7.8125 7.8125 20.476563 0 28.285157-11.304687 11.308593-26.160156 16.960937-41.011719 16.960937-14.851562 0-29.703125-5.652344-41.011718-16.960937-22.613282-22.613281-22.613282-59.410157 0-82.023438 22.613281-22.613281 59.410156-22.613281 82.023437 0 7.8125 7.808594 7.8125 20.472657 0 28.285157-7.808594 7.808593-20.472656 7.808593-28.28125 0-7.019531-7.019532-18.4375-7.019532-25.457031 0zm209.597656-320.273438h-392c-33.085938 0-60 26.914062-60 60v332c0 44.113281 35.886719 80 80 80h21c11.046875 0 20-8.953125 20-20s-8.953125-20-20-20h-21c-22.054688 0-40-17.945312-40-40v-271h432v171c0 11.046875 8.953125 20 20 20s20-8.953125 20-20v-232c0-33.085938-26.914062-60-60-60zm-81 40c11.027344 0 20 8.972656 20 20s-8.972656 20-20 20-20-8.972656-20-20 8.972656-20 20-20zm100 20c0 11.027344-8.972656 20-20 20s-20-8.972656-20-20 8.972656-20 20-20 20 8.972656 20 20zm-431 0c0-11.027344 8.972656-20 20-20h254.441406c-2.222656 6.261719-3.441406 12.988281-3.441406 20 0 7.386719 1.347656 14.460938 3.800781 21h-274.800781zm472 332c0 44.113281-35.886719 80-80 80h-23c-11.046875 0-20-8.953125-20-20s8.953125-20 20-20h23c22.054688 0 40-17.945312 40-40 0-11.046875 8.953125-20 20-20s20 8.953125 20 20zm0 0"/></svg>