<svg height="512pt" viewBox="-19 0 512 512" width="512pt" xmlns="http://www.w3.org/2000/svg"><path d="m454.925781 366.703125h-12.148437c-7.839844-36.433594-36.589844-65.183594-73.023438-73.023437v-12.148438c0-11.070312-8.972656-20.042969-20.042968-20.042969-11.066407 0-20.039063 8.972657-20.039063 20.042969v12.148438c-36.433594 7.839843-65.1875 36.589843-73.023437 73.023437h-12.152344c-11.066406 0-20.039063 8.972656-20.039063 20.042969 0 11.066406 8.972657 20.039062 20.039063 20.039062h12.152344c7.835937 36.433594 36.585937 65.183594 73.023437 73.023438v12.152344c0 11.066406 8.972656 20.039062 20.039063 20.039062 11.070312 0 20.042968-8.972656 20.042968-20.039062v-12.152344c36.433594-7.835938 65.183594-36.585938 73.023438-73.023438h12.148437c11.070313 0 20.039063-8.972656 20.039063-20.039062 0-11.070313-8.96875-20.042969-20.039063-20.042969zm-85.375 71.445313c-1.328125-9.785157-9.691406-17.335938-19.839843-17.335938-10.148438 0-18.511719 7.550781-19.835938 17.335938-14.414062-5.582032-25.910156-17.050782-31.523438-31.449219 10.25-.890625 18.292969-9.476563 18.292969-19.953125 0-10.480469-8.042969-19.066406-18.292969-19.953125 5.597657-14.359375 17.046876-25.808594 31.40625-31.40625.886719 10.246093 9.472657 18.292969 19.953126 18.292969 10.476562 0 19.066406-8.046876 19.953124-18.292969 14.359376 5.597656 25.808594 17.046875 31.40625 31.40625-10.25.886719-18.292968 9.472656-18.292968 19.953125 0 10.476562 8.042968 19.0625 18.292968 19.953125-5.613281 14.398437-17.105468 25.867187-31.519531 31.449219zm-113.027343 53.8125c0 11.066406-8.972657 20.039062-20.042969 20.039062h-156.316407c-44.203124 0-80.164062-35.960938-80.164062-80.164062v-269.503907c0-44.203125 35.960938-80.164062 80.164062-80.164062h11.023438v-2.003907c0-44.203124 35.960938-80.164062 80.160156-80.164062h190.386719c44.203125 0 80.164063 35.960938 80.164063 80.164062v175.3125c0 11.070313-8.972657 20.042969-20.039063 20.042969-11.070313 0-20.042969-8.972656-20.042969-20.042969v-175.3125c0-22.101562-17.980468-40.082031-40.082031-40.082031h-190.386719c-22.101562 0-40.082031 17.980469-40.082031 40.082031v269.503907c0 22.101562 17.980469 40.082031 40.082031 40.082031 11.070313 0 20.042969 8.972656 20.042969 20.042969 0 11.066406-8.972656 20.039062-20.042969 20.039062-44.199218 0-80.160156-35.960937-80.160156-80.164062v-227.417969h-11.023438c-22.101562 0-40.082031 17.980469-40.082031 40.082031v269.503907c0 22.101562 17.980469 40.082031 40.082031 40.082031h156.316407c11.070312 0 20.042969 8.972656 20.042969 20.042969zm0 0"/></svg>