<svg height="511pt" viewBox="0 0 511.99964 511" width="511pt" xmlns="http://www.w3.org/2000/svg"><path d="m511.96875 251.570312c.007812-.117187.011719-.234374.015625-.351562.308594-10.972656-8.285156-20.144531-19.253906-20.546875-2.570313-.097656-38.429688-1.175781-80.28125 9.570313 9.96875-21.535157 15.542969-45.5 15.542969-70.746094 0-93.1875-75.808594-168.996094-168.992188-168.996094s-168.996094 75.808594-168.996094 168.996094c0 25.972656 5.898438 50.597656 16.414063 72.605468-44.722657-12.722656-84.441407-11.53125-87.148438-11.429687-10.933593.402344-19.476562 9.511719-19.2304685 20.433594-.2851565 12.640625-.5507815 112.148437 58.8164065 171.515625 23.738281 23.734375 49.714843 35.773437 77.210937 35.773437.382813 0 33.070313-.195312 57.4375-14.488281 32.546875 35.695312 44.585938 57.496094 44.847656 57.984375 3.59375 6.746094 10.511719 10.59375 17.664063 10.59375.160156 0 .324219-.007813.484375-.011719.160156.003906.320312.011719.484375.011719 7.175781 0 14.113281-3.871094 17.699219-10.65625.320312-.609375 33.308594-61.621094 144.71875-149.496094 8.671875-6.839843 10.160156-19.414062 3.316406-28.089843-6.839844-8.671876-19.414062-10.15625-28.085938-3.316407-26.722656 21.078125-49.21875 40.777344-68.066406 58.6875-.9375-4.082031-1.542968-8.445312-1.570312-13.074219-.070313-10.875 2.273437-27.761718 23.3125-48.804687 35.535156-35.53125 92.902344-44.34375 123.023437-46.46875-2.121093 30.121094-10.925781 87.523437-46.472656 123.070313-8.644531 8.648437-17.4375 15.035156-26.136719 18.984374-10.058594 4.570313-14.507812 16.425782-9.9375 26.480469 3.351563 7.375 10.617188 11.730469 18.21875 11.730469 2.769532 0 5.578125-.574219 8.261719-1.792969 13.082031-5.945312 25.828125-15.070312 37.878906-27.117187 58.6875-58.6875 59.097657-156.605469 58.824219-171.050782zm-255.46875 205.570313c-8.878906-11.992187-21.632812-27.761719-39.230469-46.542969 5.117188-10.835937 10.617188-25.886718 10.730469-43.804687.070312-10.996094-1.867188-21.792969-5.78125-32.347657 11.84375 2.640626 24.152344 4.042969 36.78125 4.042969 10.601562 0 20.976562-.992187 31.042969-2.867187-3.421875 10.089844-5.109375 20.492187-5.042969 31.171875.113281 18.222656 5.335938 33.355469 10.273438 44.292969-17.359376 18.566406-29.972657 34.167968-38.773438 46.054687zm.5-278.605469c-14.335938 0-26-11.660156-26-25.996094 0-14.335937 11.664062-26 26-26s26 11.664063 26 26c0 14.335938-11.664062 25.996094-26 25.996094zm0 40.386719c35.050781 0 63.570312 28.519531 63.570312 63.570313 0 .109374.011719.214843.015626.324218-18.3125 9.992188-39.296876 15.675782-61.585938 15.675782-23.90625 0-46.308594-6.546876-65.519531-17.921876 1.019531-34.164062 29.109375-61.648437 63.519531-61.648437zm2-178.421875c71.128906 0 128.996094 57.867188 128.996094 128.996094 0 32.214844-11.871094 61.707031-31.464844 84.335937-7.449219-25.828125-24.703125-47.539062-47.449219-60.828125 8.707031-11.1875 13.914063-25.226562 13.914063-40.464844 0-36.394531-29.605469-66-65.996094-66s-66 29.605469-66 66c0 15.238282 5.207031 29.277344 13.917969 40.464844-21.710938 12.683594-38.414063 33.039063-46.367188 57.324219-17.84375-22.132813-28.546875-50.253906-28.546875-80.832031 0-71.128906 57.867188-128.996094 128.996094-128.996094zm-171.863281 353.839844c-35.550781-35.554688-44.351563-92.964844-46.472657-123.070313 30.132813 2.125 87.496094 10.9375 123.027344 46.46875 16.234375 16.234375 24.414063 32.652344 24.3125 48.800781-.03125 4.539063-.695312 8.867188-1.726562 12.925782-18.816406-17.867188-41.261719-37.519532-67.910156-58.535156-8.671876-6.84375-21.246094-5.355469-28.089844 3.316406-6.839844 8.671875-5.351563 21.246094 3.320312 28.085937 28.195313 22.238281 51.398438 42.828125 70.339844 61.183594-9.707031 3.25-21.308594 4.878906-27.871094 4.878906-16.734375 0-32.742187-7.867187-48.929687-24.054687zm0 0"/></svg>