<svg height="512pt" viewBox="0 0 511 512" width="512pt" xmlns="http://www.w3.org/2000/svg"><path d="m237.320312 373.890625c.480469 10.558594 8.25 18.964844 18.949219 18.964844 10.710938 0 20.394531-8.425781 20.960938-19.011719 17.179687-4 30.015625-19.414062 30.015625-37.777344v-24.726562c0-13.242188 7.503906-25.824219 16.191406-40.390625 11.019531-18.480469 23.496094-39.398438 23.789062-67.222657.003907-.152343.003907-.308593.003907-.460937v-.539063c0-.152343 0-.308593-.003907-.460937-.5-47.476563-36.570312-79.304687-90.078124-79.304687-24.773438 0-46.5625 6.769531-63.007813 19.574218-18.335937 14.273438-28.550781 35.445313-28.832031 59.699219-.003906.164063-.003906.328125-.003906.492187v.539063c0 .1875 0 .375.007812.558594.355469 25.304687 12.9375 45.925781 24.058594 64.148437 9.214844 15.101563 17.914062 29.363282 17.914062 43.367188v24.726562c0 18.433594 12.863282 33.898438 30.035156 37.824219zm29.941407-59.003906v19.992187h-19.992188v-19.992187zm-61.972657-111.914063c.171876-29.503906 26.867188-40.027344 51.859376-40.027344 15.023437 0 49.921874 3.910157 50.097656 40.046876-.085938 17.183593-8.460938 31.230468-18.148438 47.476562-4.542968 7.617188-9.355468 15.691406-13.304687 24.433594h-36.984375c-4.441406-9.945313-10.039063-19.125-15.308594-27.757813-9.3125-15.261719-18.113281-29.683593-18.210938-44.171875zm273.375 110.847656c8.621094 12.246094 16.761719 29.855469 16.761719 52.753907 0 11.039062-8.949219 19.992187-19.992187 19.992187-11.039063 0-19.992188-8.953125-19.992188-19.992187 0-16.390625-7.390625-27.988281-13.058594-34.480469-7.070312 1.75-14.457031 2.683594-22.058593 2.683594-11.039063 0-19.992188-8.949219-19.992188-19.992188 0-11.039062 8.953125-19.992187 19.992188-19.992187 28.59375 0 51.859375-23.261719 51.859375-51.855469 0-25.34375-18.84375-47.371094-43.828125-51.242188l-19.640625-2.992187c-7.671875-1.167969-13.976563-6.675781-16.167969-14.125-2.1875-7.445313.132813-15.488281 5.953125-20.628906 5.34375-4.71875 8.339844-11.226563 8.433594-18.324219.082031-6.394531-2.46875-12.542969-7.183594-17.316406-4.953125-5.019532-11.769531-7.898438-18.699219-7.898438h-3.921875c-21.222656 0-38.484375-17.265625-38.484375-38.484375v-.113281c0-17.550781-13.996093-31.828125-31.199219-31.828125-16.6875 0-29.917968 12.394531-31.101562 28.628906.027344.789063.058594 1.574219.058594 2.371094 0 11.039063-8.949219 19.992187-19.992188 19.992187-.027344 0-.050781-.003906-.078125-.003906-.023437 0-.050781.003906-.074219.003906-11.042968 0-19.992187-8.953124-19.992187-19.992187 0-.796875.03125-1.582031.058594-2.371094-1.183594-16.234375-14.414063-28.628906-31.101563-28.628906-17.203125 0-31.199218 14.277344-31.199218 31.824219v.113281c0 21.222656-17.265626 38.484375-38.484376 38.484375h-3.921874c-6.929688 0-13.746094 2.882812-18.699219 7.902344-4.714844 4.773437-7.265625 10.921875-7.183594 17.3125.09375 7.101562 3.085937 13.609375 8.433594 18.328125 5.820312 5.140625 8.140625 13.179687 5.949219 20.628906-2.1875 7.449219-8.492188 12.957031-16.167969 14.125l-19.683594 3c-24.9375 3.863281-43.78125 25.890625-43.78125 51.234375 0 28.59375 23.265625 51.855469 51.859375 51.855469 11.042969 0 19.992188 8.949219 19.992188 19.992187 0 11.042969-8.949219 19.992188-19.992188 19.992188-7.601562 0-14.984375-.933594-22.050781-2.683594-5.710938 6.523438-13.066407 18.101562-13.066407 34.476562 0 23.3125 18.960938 42.277344 42.273438 42.277344h1.773438c23.746093.023438 44.886718 14.328125 53.882812 36.441406 6.601562 16.234376 21.949219 26.726563 39.09375 26.726563 24.984375 0 39.421875-18.621094 43.015625-23.90625v-4.273437c0-11.042969 8.953125-19.992188 19.992187-19.992188 11.042969 0 19.992188 8.949219 19.992188 19.992188v5.835937c8.03125 8.8125 24.015625 22.34375 41.164062 22.34375 17.144532 0 32.492188-10.488281 39.09375-26.722656 8.996094-22.117188 30.140626-36.421875 53.863282-36.445313h1.796875c11.042969 0 19.992187 8.949219 19.992187 19.992188 0 11.042968-8.949218 19.992187-19.992187 19.992187h-1.773438c-7.382812.007813-14.003906 4.53125-16.847656 11.523438-12.761719 31.375-42.644531 51.644531-76.132813 51.644531-26.269531 0-47.628906-13.984375-61.199218-26.089844-12.828125 12.34375-33.683594 26.089844-62.964844 26.089844-33.484375 0-63.371094-20.269531-76.132812-51.644531-2.84375-6.992188-9.464844-11.515625-16.863282-11.523438h-1.753906c-45.359375 0-82.261719-36.902343-82.261719-82.257812 0-22.898438 8.144531-40.507813 16.765625-52.753907-20.445312-16.859374-33.503906-42.375-33.503906-70.882812 0-22.054688 7.933594-43.375 22.34375-60.039062 12.089844-13.988282 28.074219-23.957032 45.734375-28.6875-1.777344-5.8125-2.746094-11.894532-2.824219-18.070313-.222656-17.167969 6.421875-33.476563 18.707032-45.921875 12.417968-12.578125 29.605468-19.792969 47.152343-19.792969h2.4375c.738281-38.960937 32.382813-70.425781 71.171875-70.425781 19.011719 0 36.871094 7.332031 50.28125 20.644531.285156.28125.550782.578125.832032.867188.277343-.285157.546874-.582031.832031-.867188 13.40625-13.3125 31.265625-20.644531 50.277343-20.644531 38.789063 0 70.433594 31.464844 71.171876 70.421875h2.433593c17.550781 0 34.738281 7.214844 47.15625 19.796875 12.285157 12.445312 18.929688 28.753906 18.707031 45.921875-.082031 6.175781-1.050781 12.257813-2.828124 18.070313 17.683593 4.738281 33.652343 14.707031 45.738281 28.683593 14.40625 16.667969 22.34375 37.988281 22.34375 60.039063 0 28.511718-13.058594 54.027344-33.503907 70.886718zm0 0"/></svg>