<svg height="512pt" viewBox="0 0 512.00045 512" width="512pt" xmlns="http://www.w3.org/2000/svg"><path d="m237.90625 410.839844h-157.9375c-22.046875 0-39.984375-17.9375-39.984375-39.984375v-1.996094c0-22.050781 17.9375-39.988281 39.984375-39.988281h40.875c11.039062 0 19.992188-8.949219 19.992188-19.992188v-198.921875h290.996093c22.046875 0 39.984375 17.9375 39.984375 39.984375v115.957032c0 11.039062 8.953125 19.992187 19.992188 19.992187 11.042968 0 19.992187-8.953125 19.992187-19.992187v-115.957032c0-44.09375-35.871093-79.96875-79.96875-79.96875h-290.996093v-49.980468c0-11.042969-8.953126-19.992188-19.992188-19.992188h-40.875c-44.09375 0-79.96875 35.875-79.96875 79.96875v290.886719c0 44.097656 35.875 79.96875 79.96875 79.96875h157.9375c11.042969 0 19.992188-8.949219 19.992188-19.992188 0-11.039062-8.949219-19.992187-19.992188-19.992187zm-197.921875-330.871094c0-22.046875 17.9375-39.984375 39.984375-39.984375h20.882812v248.902344h-20.882812c-14.554688 0-28.214844 3.910156-39.984375 10.734375zm463.472656 335.683594-19.476562-13.878906c.035156-.976563.054687-1.953126.054687-2.925782 0-1.203125-.039062-2.40625-.089844-3.605468-.015624-.351563-.035156-.703126-.054687-1.050782-.019531-.292968-.027344-.585937-.046875-.875l19.8125-14.210937c8.304688-5.953125 10.78125-17.210938 5.746094-26.097657l-10.191406-17.996093c-4.859376-8.578125-15.25-12.335938-24.472657-8.84375l-22.800781 8.628906c-2.046875-1.53125-4.171875-2.945313-6.347656-4.269531-.039063-.023438-.074219-.046875-.109375-.070313-.914063-.554687-1.84375-1.082031-2.78125-1.597656-.269531-.152344-.539063-.304687-.8125-.453125-.832031-.445312-1.667969-.871094-2.511719-1.289062-.40625-.199219-.8125-.398438-1.21875-.59375-.390625-.183594-.769531-.386719-1.164062-.5625l-4.253907-23.621094c-1.714843-9.523438-10-16.453125-19.675781-16.453125h-18.992188c-9.972656 0-18.417968 7.347656-19.800781 17.222656l-3.199219 22.871094c-5.886718 2.664062-11.421874 6.035156-16.503906 10.046875l-23.199218-7.246094c-9.4375-2.949219-19.613282 1.449219-23.9375 10.335938l-8.527344 17.53125c-4.320313 8.878906-1.515625 19.578124 6.605468 25.191406l18.691407 12.921875c-.066407 1.351562-.105469 2.714843-.105469 4.085937 0 1.222656.039062 2.445313.09375 3.667969.019531.421875.050781.84375.074219 1.265625.027343.429688.042969.863281.078125 1.292969l-18.953125 15.167969c-7.679688 6.144531-9.75 16.953124-4.886719 25.5l9.089844 15.972656c4.828125 8.484375 15.078125 12.242187 24.25 8.882812l21.921875-8.023437c4.773437 3.625 9.929687 6.695312 15.378906 9.160156l4.253906 23.617187c1.710938 9.523438 10 16.453126 19.675781 16.453126h17.992188c9.820312 0 18.1875-7.136719 19.742188-16.835938l3.683593-23.023438c.492188-.21875.972657-.453124 1.457031-.683593.335938-.15625.675782-.308594 1.007813-.46875.855469-.421875 1.703125-.855469 2.542969-1.304688.722656-.386719 1.4375-.789062 2.148437-1.199219.066407-.035156.132813-.074218.195313-.109374 3.910156-2.253907 7.625-4.808594 11.082031-7.664063l23.375 6.710937c9.257813 2.65625 19.085937-1.660156 23.394531-10.269531l8.042969-16.078125c4.410156-8.808594 1.746094-19.511718-6.277344-25.226562zm-70.335937 9.941406c-2.8125 3.570312-6.503906 6.558594-10.769532 8.792969-.128906.066406-.261718.132812-.394531.203125-.757812.382812-1.527343.746094-2.316406 1.082031-.195313.082031-.398437.15625-.59375.234375-.621094.253906-1.253906.492188-1.894531.714844-.265625.089844-.53125.183594-.796875.269531-.808594.257813-1.628907.503906-2.460938.714844-3.144531.796875-6.4375 1.226562-9.828125 1.226562-3.707031 0-7.289062-.519531-10.699218-1.46875-.570313-.15625-1.140626-.328125-1.703126-.511719-.320312-.105468-.640624-.210937-.957031-.324218-.5-.179688-.996093-.371094-1.488281-.566406-.480469-.191407-.953125-.394532-1.421875-.605469-.4375-.195313-.875-.394531-1.304687-.605469-.371094-.183594-.734376-.371094-1.097657-.5625-.355469-.1875-.707031-.386719-1.058593-.585938-.5-.285156-.996094-.578124-1.480469-.882812-.429688-.269531-.855469-.542969-1.273438-.828125-.332031-.230469-.660156-.464844-.984375-.703125-.347656-.253906-.691406-.511719-1.03125-.777344-.292968-.226562-.585937-.453125-.871094-.6875-.554687-.453125-1.09375-.925781-1.625-1.410156-.25-.230469-.492187-.46875-.738281-.703125-.367187-.355469-.726562-.714844-1.082031-1.085937-4.84375-5.042969-8.382812-11.34375-10.0625-18.367188-.136719-.566406-.261719-1.140625-.375-1.714844-.039062-.21875-.078125-.441406-.117188-.660156-.097656-.546875-.179687-1.089844-.253906-1.640625-.03125-.226563-.058594-.457031-.085937-.683594-.066407-.5625-.117188-1.128906-.15625-1.691406-.015625-.207031-.035157-.414063-.046875-.621094-.042969-.765625-.070313-1.53125-.070313-2.296875 0-.738281.019531-1.476562.0625-2.21875.003907-.089844.015625-.179687.023438-.273437.039062-.664063.09375-1.328125.171875-1.996094.003906-.054687.015625-.109375.019531-.167969.082031-.703125.183594-1.402344.304687-2.105468.007813-.035157.011719-.066407.019532-.101563.121094-.707031.265625-1.40625.425781-2.109375 1.671875-7.269531 5.328125-13.789062 10.375-18.953125.144531-.144531.285156-.292969.425781-.4375.398438-.394531.804688-.78125 1.21875-1.160156.09375-.085938.191406-.167969.285156-.253907.835938-.746093 1.699219-1.460937 2.59375-2.136718.070313-.054688.140626-.109375.210938-.164063 1.449219-1.078125 2.976562-2.058593 4.5625-2.9375.121094-.066406.238281-.132812.359375-.199219.5-.269531 1.007813-.53125 1.523437-.78125.164063-.078124.332032-.152343.496094-.230468.816406-.378906 1.644532-.730469 2.488282-1.058594.339843-.132812.679687-.265625 1.019531-.386719.402343-.140625.808593-.28125 1.214843-.410156.542969-.175781 1.09375-.335937 1.648438-.484375 3.359375-.917969 6.886719-1.417969 10.535156-1.417969 3.714844 0 7.308594.519531 10.726563 1.472657.550781.152343 1.101562.320312 1.644531.496093.328125.105469.648438.214844.972656.328125.480469.171875.953125.355469 1.425782.542969.457031.183594.910156.371094 1.359374.570313.476563.210937.949219.425781 1.417969.65625.351563.171874.695313.351562 1.042969.535156.375.199218.75.40625 1.121094.617187.324218.1875.652344.367188.96875.558594.601562.367187 1.191406.75 1.773437 1.144531.292969.199219.574219.40625.855469.609375.398438.285157.789062.578125 1.175781.878907.253907.195312.507813.394531.757813.597656.582031.476562 1.15625.964844 1.710937 1.476562.183594.164063.355469.339844.535157.507813.4375.414062.863281.835937 1.28125 1.273437 4.875 5.054688 8.425781 11.382813 10.113281 18.433594.128906.546875.25 1.09375.359375 1.648438.046875.238281.085937.480468.128906.71875.089844.527343.171875 1.054687.246094 1.585937.03125.242187.0625.480469.089844.726563.066406.550781.113281 1.105468.15625 1.660156.015624.214844.035156.429687.046874.648437.042969.765625.070313 1.53125.070313 2.296875 0 1.382813-.070313 2.765625-.210937 4.144532-.007813.058593-.019532.121093-.027344.183593-.0625.613281-.140625 1.226563-.234375 1.835938-.039063.25-.089844.492187-.132813.738281-.070312.410156-.140625.820312-.226562 1.230469-1.167969 5.632812-3.53125 10.835937-6.804688 15.332031-1.199218.949219-2.3125 2.039062-3.289062 3.28125zm0 0"/></svg>