<svg height="511pt" viewBox="1 0 511.99942 511" width="511pt" xmlns="http://www.w3.org/2000/svg"><path d="m69.011719 143.550781c.210937-.515625.421875-1.027343.636719-1.542969 4.527343-10.855468 17.476562-15.394531 27.851562-9.851562 9.132812 4.878906 12.957031 15.890625 8.980469 25.453125-.121094.289063-.238281.578125-.359375.871094-3.925782 9.582031-14.40625 14.6875-24.320313 11.703125-11.261719-3.390625-17.238281-15.742188-12.789062-26.632813zm140.121093-88.582031c.292969-.121094.585938-.242188.882813-.363281 9.578125-3.925781 14.6875-14.402344 11.707031-24.316407-3.386718-11.265624-15.738281-17.246093-26.628906-12.796874-.515625.210937-1.035156.425781-1.550781.640624-10.855469 4.527344-15.398438 17.472657-9.859375 27.847657 4.875 9.136719 15.886718 12.964843 25.449218 8.988281zm-88.777343 42.964844c8.007812 6.574218 19.65625 5.890625 26.96875-1.453125.222656-.226563.449219-.453125.675781-.679688 7.34375-7.308593 8.035156-18.953125 1.457031-26.964843-7.457031-9.085938-21.144531-9.851563-29.488281-1.574219-.394531.394531-.789062.789062-1.179688 1.183593-8.285156 8.339844-7.519531 22.027344 1.566407 29.488282zm234.535156 308.085937c-.289063.121094-.582031.238281-.871094.359375-9.582031 3.925782-14.6875 14.402344-11.703125 24.316406 3.390625 11.265626 15.742188 17.242188 26.632813 12.792969.515625-.210937 1.027343-.421875 1.542969-.636719 10.851562-4.527343 15.394531-17.476562 9.851562-27.851562-4.878906-9.132812-15.890625-12.957031-25.453125-8.980469zm88.773437-42.980469c-8.011718-6.574218-19.660156-5.886718-26.96875 1.460938-.226562.226562-.449218.453125-.675781.675781-7.34375 7.3125-8.03125 18.960938-1.457031 26.96875 7.460938 9.082031 21.148438 9.847657 29.488281 1.566407.398438-.390626.792969-.789063 1.183594-1.183594 8.28125-8.339844 7.515625-22.03125-1.570313-29.488282zm38.546876-72.261718c-9.917969-2.984375-20.394532 2.125-24.320313 11.707031-.121094.292969-.238281.585937-.363281.882813-3.972656 9.558593-.144532 20.574218 8.988281 25.449218 10.375 5.542969 23.324219.996094 27.851563-9.859375.214843-.515625.425781-1.03125.636718-1.550781 4.449219-10.890625-1.53125-23.242188-12.792968-26.628906zm-180.363282 147.449218c-.957031-10.121093-9.5-17.738281-19.667968-17.726562-.058594 0-.121094 0-.179688 0-25.816406 0-50.441406-5.183594-72.902344-14.554688-7.53125-3.140624-16.210937-1.480468-21.984375 4.292969-10.0625 10.0625-6.769531 27.1875 6.367188 32.667969 27.675781 11.539062 57.628906 17.59375 88.519531 17.59375h.601562c11.46875-.03125 20.402344-9.988281 19.324219-21.410156zm-201.125-112.324218c5.773438-5.773438 7.4375-14.453125 4.292969-21.988282-9.371094-22.457031-14.554687-47.082031-14.554687-72.898437 0-.058594 0-.121094 0-.179687.011718-10.167969-7.605469-18.710938-17.726563-19.667969l-.863281-.082031c-11.421875-1.078126-21.378906 7.855468-21.40625 19.328124-.003906.199219-.003906.402344-.003906.601563 0 30.886719 6.054687 60.84375 17.59375 88.519531 5.480468 13.136719 22.605468 16.429688 32.667968 6.367188zm343.910156-258.039063c-43.441406-43.441406-101.199218-67.363281-162.632812-67.363281-.199219 0-.402344 0-.601562 0-11.457032.03125-20.382813 9.964844-19.328126 21.371094.054688.828125.148438 1.648437.304688 2.445312 1.632812 9.339844 9.804688 16.191406 19.445312 16.183594h.179688c104.765625 0 190 85.234375 190 190 0 11.046875 8.953125 20 20 20s20-8.953125 20-20c0-61.4375-23.925781-119.191406-67.367188-162.636719zm-89.800781 206.300781c-.058593-.058593-.113281-.117187-.171875-.171874l-21.363281-21.363282c6.351563-1.476562 13.746094-2.167968 22.296875-2.128906h59.40625c11.046875 0 20-8.953125 20-20s-8.953125-20-20-20h-59.3125c-.273438 0-.535156-.003906-.804688-.003906-.996093 0-1.96875.03125-2.949218.046875-.296875-.011719-.585938-.042969-.886719-.042969-.164063 0-.320313 0-.480469 0-6.640625 0-12.589844-.636719-17.851562-1.878906l58.367187-58.917969c7.769531-7.847656 7.710938-20.511719-.136719-28.285156-7.847656-7.773438-20.511718-7.714844-28.28125.132812l-58.597656 59.15625c-1.210937-4.710937-1.917968-10.003906-2.117187-15.867187.023437-1.160156.054687-2.316406.050781-3.5v-63.839844c0-11.046875-8.957031-20-20-20-11.046875 0-20 8.953125-20 20v61.730469c-.074219.691406-.113281 1.394531-.113281 2.109375 0 1.195312.035156 2.363281.0625 3.539062-.164063 5.351563-.765625 10.222656-1.785157 14.613282l-23.429687-23.425782c-.058594-.0625-.121094-.121094-.179687-.179687l-35.46875-34.578125c-7.910157-7.714844-20.570313-7.554688-28.28125.355468-7.710938 7.910157-7.550782 20.570313.359374 28.28125l35.375 34.492188 23.839844 23.839844c-5.675781 1.476562-12.195312 2.222656-19.542968 2.222656h-63.835938c-11.046875 0-20 8.953125-20 20s8.953125 20 20 20h63.839844.082031.027344.484375c7.039062 0 13.308594.710938 18.800781 2.109375-1.144531.742187-2.230469 1.605469-3.234375 2.605469l-223.109375 222.109375c-7.828125 7.792969-7.855469 20.457031-.0625 28.285156 3.90625 3.925781 9.039063 5.890625 14.171875 5.890625 5.105469 0 10.207031-1.941406 14.109375-5.828125l223.109375-222.109375c1.039062-1.035156 1.933594-2.160156 2.695312-3.34375 1.199219 4.636719 1.902344 9.84375 2.121094 15.597656-.007812.261719-.027344.515625-.03125.78125-.003906.132813-.003906.265625-.003906.402344v66.5c0 11.046875 8.953125 20 20 20s20-8.953125 20-20v-61.730469c.074219-.691406.113281-1.394531.113281-2.109375 0-1.257812-.035156-2.488281-.066406-3.722656.199219-5.929688.882813-11.21875 2.097656-15.894531l22.144531 22.144531 36.269532 37.15625c3.921875 4.015625 9.113281 6.027344 14.316406 6.027344 5.035156 0 10.078125-1.890625 13.96875-5.6875 7.902344-7.714844 8.054688-20.378906.339844-28.28125zm0 0"/></svg>